<mxfile host="app.diagrams.net" agent="Mozilla/5.0 (Windows NT 10.0; Win64; x64) AppleWebKit/537.36 (KHTML, like Gecko) Chrome/138.0.0.0 Safari/537.36" version="28.0.7">
  <diagram name="Page-1" id="PJX9JKJy5KzWJc68_nqa">
    <mxGraphModel dx="1901" dy="1036" grid="1" gridSize="10" guides="1" tooltips="1" connect="1" arrows="1" fold="1" page="1" pageScale="1" pageWidth="850" pageHeight="1100" math="0" shadow="0">
      <root>
        <mxCell id="0" />
        <mxCell id="1" parent="0" />
        <mxCell id="8NNf2UId70UZPEbqITqU-1" value="Title&amp;nbsp;" style="rounded=0;whiteSpace=wrap;html=1;" vertex="1" parent="1">
          <mxGeometry y="10" width="1730" height="90" as="geometry" />
        </mxCell>
        <mxCell id="8NNf2UId70UZPEbqITqU-2" value="Nav bar" style="rounded=0;whiteSpace=wrap;html=1;" vertex="1" parent="1">
          <mxGeometry x="1400" y="60" width="60" height="20" as="geometry" />
        </mxCell>
        <mxCell id="8NNf2UId70UZPEbqITqU-3" value="Nav bar" style="rounded=0;whiteSpace=wrap;html=1;" vertex="1" parent="1">
          <mxGeometry x="1460" y="60" width="60" height="20" as="geometry" />
        </mxCell>
        <mxCell id="8NNf2UId70UZPEbqITqU-4" value="Nav bar" style="rounded=0;whiteSpace=wrap;html=1;" vertex="1" parent="1">
          <mxGeometry x="1520" y="60" width="70" height="20" as="geometry" />
        </mxCell>
        <mxCell id="8NNf2UId70UZPEbqITqU-5" value="Nav bar" style="rounded=0;whiteSpace=wrap;html=1;" vertex="1" parent="1">
          <mxGeometry x="1340" y="60" width="60" height="20" as="geometry" />
        </mxCell>
        <mxCell id="8NNf2UId70UZPEbqITqU-18" value="call to action to join us&amp;nbsp;" style="rounded=0;whiteSpace=wrap;html=1;" vertex="1" parent="1">
          <mxGeometry x="1160" y="160" width="550" height="90" as="geometry" />
        </mxCell>
        <mxCell id="8NNf2UId70UZPEbqITqU-28" value="where we play,&amp;nbsp; few pics of layouts and games&amp;nbsp;" style="rounded=0;whiteSpace=wrap;html=1;" vertex="1" parent="1">
          <mxGeometry x="70" y="160" width="460" height="220" as="geometry" />
        </mxCell>
        <mxCell id="8NNf2UId70UZPEbqITqU-29" value="ideas of where/how/when/etc.&amp;nbsp;" style="rounded=0;whiteSpace=wrap;html=1;" vertex="1" parent="1">
          <mxGeometry x="70" y="760" width="1040" height="210" as="geometry" />
        </mxCell>
        <mxCell id="8NNf2UId70UZPEbqITqU-30" value="where we play,&amp;nbsp; few pics of layouts and games&amp;nbsp;" style="rounded=0;whiteSpace=wrap;html=1;" vertex="1" parent="1">
          <mxGeometry x="620" y="170" width="440" height="210" as="geometry" />
        </mxCell>
        <mxCell id="8NNf2UId70UZPEbqITqU-31" value="list of local tournements going on date, and game and costs&lt;div&gt;&lt;br&gt;&lt;/div&gt;&lt;div&gt;&lt;br&gt;&lt;/div&gt;" style="rounded=0;whiteSpace=wrap;html=1;" vertex="1" parent="1">
          <mxGeometry x="1230" y="310" width="440" height="620" as="geometry" />
        </mxCell>
        <mxCell id="8NNf2UId70UZPEbqITqU-32" value="where we play,&amp;nbsp; few pics of layouts and games&amp;nbsp;" style="rounded=0;whiteSpace=wrap;html=1;" vertex="1" parent="1">
          <mxGeometry x="70" y="460" width="460" height="220" as="geometry" />
        </mxCell>
        <mxCell id="8NNf2UId70UZPEbqITqU-33" value="where we play,&amp;nbsp; few pics of layouts and games&amp;nbsp;" style="rounded=0;whiteSpace=wrap;html=1;" vertex="1" parent="1">
          <mxGeometry x="620" y="460" width="440" height="210" as="geometry" />
        </mxCell>
      </root>
    </mxGraphModel>
  </diagram>
</mxfile>
